<?xml version="1.0" encoding="UTF-8" standalone="no"?>
<svg
   version="1.1"
   x="0px"
   y="0px"
   viewBox="0.0 0.0 512.0 512.0"
   enable-background="new 0 0 100 100"
   xml:space="preserve"
   id="svg5"
   sodipodi:docname="logo.svg"
   width="512.0"
   height="512.0"
   inkscape:version="1.3.2 (091e20e, 2023-11-25, custom)"
   inkscape:export-filename="logo.png"
   inkscape:export-xdpi="96"
   inkscape:export-ydpi="96"
   xmlns:inkscape="http://www.inkscape.org/namespaces/inkscape"
   xmlns:sodipodi="http://sodipodi.sourceforge.net/DTD/sodipodi-0.dtd"
   xmlns:xlink="http://www.w3.org/1999/xlink"
   xmlns="http://www.w3.org/2000/svg"
   xmlns:svg="http://www.w3.org/2000/svg"
   xmlns:ffdec="https://www.free-decompiler.com/flash"><defs
     id="defs5"><g
       id="shape0"
       transform="matrix(1.0, 0.0, 0.0, 1.0, 0.0, 0.0)"><path
         d="M100.0 100.0 L0.0 100.0 0.0 0.0 100.0 0.0 100.0 100.0"
         fill="#00cc66"
         fill-opacity="0.0"
         fill-rule="evenodd"
         stroke="none"
         id="path2" /><path
         d="M84.3 84.3 L84.3 15.7 15.7 15.7 15.7 84.3 84.3 84.3 M92.25 92.25 L7.75 92.25 7.75 7.75 92.25 7.75 92.25 92.25"
         fill="#666666"
         fill-opacity="0.0"
         fill-rule="evenodd"
         stroke="none"
         id="path3" /><path
         d="M84.3 84.3 L15.7 84.3 15.7 15.7 84.3 15.7 84.3 84.3 M76.4 76.4 L76.4 23.55 23.55 23.55 23.55 76.4 76.4 76.4"
         fill="#999999"
         fill-opacity="0.0"
         fill-rule="evenodd"
         stroke="none"
         id="path4" /><path
         d="M92.25 92.25 L92.25 7.75 7.75 7.75 7.75 92.25 92.25 92.25 M96.05 96.05 L3.95 96.05 3.95 3.95 96.05 3.95 96.05 96.05"
         fill="#333333"
         fill-opacity="0.0"
         fill-rule="evenodd"
         stroke="none"
         id="path5" /><path
         d="M68.85 68.85 L68.85 31.1 31.1 31.1 31.1 68.85 68.85 68.85 M76.4 76.4 L23.55 76.4 23.55 23.55 76.4 23.55 76.4 76.4"
         fill="#cccccc"
         fill-opacity="0.0"
         fill-rule="evenodd"
         stroke="none"
         id="path6" /><path
         d="M68.85 68.85 L31.1 68.85 31.1 31.1 68.85 31.1 68.85 68.85"
         fill="#ffffff"
         fill-opacity="0.0"
         fill-rule="evenodd"
         stroke="none"
         id="path7" /><path
         d="M96.05 96.05 L96.05 3.95 3.95 3.95 3.95 96.05 96.05 96.05 M100.0 100.0 L0.0 100.0 0.0 0.0 100.0 0.0 100.0 100.0"
         fill="#000000"
         fill-opacity="0.0"
         fill-rule="evenodd"
         stroke="none"
         id="path8" /><path
         d="M0.0 50.0 L50.0 50.0 0.0 0.0 M50.0 50.0 L50.0 0.0 M50.0 100.0 L50.0 50.0 0.0 100.0 M100.0 50.0 L50.0 50.0 100.0 100.0 M50.0 50.0 L100.0 0.0"
         fill="none"
         stroke="#000000"
         stroke-linecap="round"
         stroke-linejoin="round"
         stroke-opacity="0.0"
         stroke-width="0.05"
         id="path9" /></g><g
       id="sprite0"
       transform="matrix(1.0, 0.0, 0.0, 1.0, 0.0, 0.0)"><use
         ffdec:characterId="259"
         height="125.0"
         transform="matrix(1.0, 0.0, 0.0, 1.0, 0.0, 0.0)"
         width="125.0"
         xlink:href="#shape1"
         id="use9" /></g><g
       id="shape1"
       transform="matrix(1.0, 0.0, 0.0, 1.0, 0.0, 0.0)"><path
         d="M114.3 49.65 Q113.6 50.9 112.75 52.05 111.9 53.2 110.95 54.25 109.95 55.25 108.85 56.15 107.75 57.05 106.55 57.8 105.35 58.55 104.05 59.15 102.75 59.75 101.35 60.15 99.95 60.55 98.45 60.75 97.0 60.95 95.45 60.95 L92.45 60.95 92.45 65.8 92.45 73.35 Q92.45 73.8 92.35 74.2 92.25 74.6 92.05 75.0 91.9 75.35 91.65 75.7 91.4 76.05 91.1 76.35 90.8 76.65 90.45 76.85 90.05 77.1 89.7 77.25 89.3 77.4 88.85 77.5 88.45 77.6 88.0 77.6 87.55 77.6 87.15 77.5 86.7 77.4 86.3 77.25 85.9 77.1 85.55 76.85 85.2 76.65 84.9 76.35 84.6 76.05 84.35 75.7 84.1 75.35 83.9 75.0 83.75 74.6 83.65 74.2 83.55 73.75 83.55 73.35 L83.55 60.95 41.35 60.95 41.35 73.35 Q41.35 73.8 41.25 74.2 41.15 74.6 41.0 75.0 40.8 75.35 40.55 75.7 40.3 76.05 40.0 76.35 39.7 76.65 39.35 76.85 39.0 77.1 38.6 77.25 38.2 77.4 37.75 77.5 37.35 77.6 36.9 77.6 36.45 77.6 36.05 77.5 35.6 77.4 35.2 77.25 34.8 77.1 34.45 76.85 34.1 76.65 33.8 76.35 33.5 76.05 33.25 75.7 33.0 75.35 32.85 75.0 32.65 74.6 32.55 74.2 32.45 73.75 32.45 73.35 L32.45 65.8 32.45 60.95 29.7 60.95 Q28.2 60.95 26.7 60.75 25.25 60.55 23.8 60.15 22.4 59.75 21.1 59.15 19.8 58.55 18.55 57.8 17.35 57.05 16.2 56.15 15.1 55.25 14.1 54.25 13.15 53.2 12.3 52.05 11.45 50.9 10.75 49.65 9.6 50.1 8.55 50.75 7.5 51.4 6.55 52.2 5.65 53.0 4.8 53.95 4.0 54.85 3.3 55.9 2.6 56.95 2.05 58.15 1.5 59.3 1.15 60.55 0.75 61.8 0.6 63.1 0.4 64.45 0.4 65.8 L0.4 86.3 Q0.4 88.1 0.7 89.8 1.05 91.5 1.65 93.05 2.25 94.6 3.15 96.0 4.0 97.35 5.1 98.55 6.2 99.7 7.5 100.65 8.8 101.6 10.25 102.25 11.75 102.9 13.3 103.25 14.9 103.6 16.55 103.6 16.55 103.6 16.5 103.6 16.45 103.6 16.4 103.6 L16.4 102.95 16.4 95.15 108.45 95.15 108.45 102.95 108.45 103.6 108.6 103.6 Q110.25 103.6 111.85 103.25 113.4 102.9 114.85 102.25 116.3 101.6 117.55 100.65 118.85 99.75 119.9 98.55 121.0 97.35 121.85 96.0 122.7 94.6 123.3 93.05 123.9 91.5 124.2 89.8 124.5 88.1 124.5 86.3 L124.5 65.8 Q124.5 64.45 124.3 63.1 124.15 61.8 123.75 60.55 123.4 59.3 122.9 58.1 122.35 56.95 121.7 55.9 121.0 54.85 120.2 53.95 119.4 53.0 118.45 52.2 117.5 51.4 116.45 50.75 115.4 50.1 114.3 49.65 L114.3 49.65"
         fill="#ffffff"
         fill-rule="evenodd"
         stroke="none"
         id="path10" /><path
         d="M33.05 116.7 L91.95 116.7 Q93.7 116.7 95.45 116.35 97.15 116.0 98.75 115.35 100.3 114.75 101.7 113.8 103.1 112.9 104.35 111.75 105.55 110.6 106.5 109.25 107.5 107.9 108.2 106.4 108.95 104.85 109.35 103.2 109.75 101.55 109.85 99.8 L15.15 99.8 Q15.25 101.5 15.65 103.2 16.05 104.85 16.8 106.35 17.5 107.9 18.5 109.25 19.45 110.6 20.65 111.75 21.9 112.9 23.3 113.8 24.7 114.75 26.25 115.35 27.85 116.05 29.55 116.35 31.3 116.7 33.05 116.7 L33.05 116.7"
         fill="#ffffff"
         fill-rule="evenodd"
         stroke="none"
         id="path11" /><path
         d="M48.3 15.25 L29.7 15.25 Q28.35 15.25 27.05 15.5 25.8 15.75 24.55 16.3 23.4 16.8 22.3 17.5 21.25 18.2 20.35 19.1 19.45 20.0 18.7 21.05 18.0 22.15 17.5 23.3 16.95 24.5 16.7 25.8 16.4 27.1 16.4 28.45 L16.4 42.0 Q16.4 43.35 16.7 44.65 16.95 45.95 17.45 47.15 18.0 48.35 18.7 49.4 19.45 50.5 20.35 51.4 21.25 52.3 22.3 53.05 23.4 53.75 24.6 54.3 25.8 54.8 27.05 55.05 28.35 55.35 29.7 55.35 L32.45 55.35 32.45 38.9 Q32.45 38.45 32.55 38.05 32.65 37.6 32.8 37.25 33.0 36.85 33.25 36.5 33.5 36.15 33.8 35.85 34.1 35.6 34.45 35.35 34.8 35.1 35.2 34.95 35.6 34.8 36.05 34.7 36.45 34.6 36.9 34.6 37.35 34.6 37.75 34.7 38.2 34.8 38.6 34.95 39.0 35.1 39.35 35.35 39.7 35.55 40.0 35.85 40.3 36.15 40.55 36.5 40.8 36.85 40.95 37.2 41.15 37.6 41.25 38.0 41.35 38.45 41.35 38.9 L41.35 55.35 83.55 55.35 83.55 38.9 Q83.55 38.45 83.65 38.05 83.75 37.6 83.9 37.25 84.1 36.85 84.35 36.5 84.6 36.15 84.9 35.85 85.2 35.6 85.55 35.35 85.9 35.1 86.3 34.95 86.7 34.8 87.15 34.7 87.55 34.6 88.0 34.6 88.45 34.6 88.85 34.7 89.3 34.8 89.7 34.95 90.05 35.1 90.45 35.35 90.8 35.55 91.1 35.85 91.4 36.15 91.65 36.5 91.9 36.85 92.05 37.2 92.25 37.6 92.35 38.0 92.45 38.45 92.45 38.9 L92.45 55.35 95.45 55.35 Q96.8 55.35 98.1 55.05 99.35 54.8 100.55 54.3 101.7 53.8 102.75 53.05 103.8 52.3 104.7 51.4 105.55 50.5 106.25 49.45 106.95 48.35 107.45 47.15 107.95 45.95 108.2 44.7 108.45 43.35 108.45 42.0 L108.45 28.45 Q108.45 27.1 108.2 25.8 107.95 24.5 107.45 23.3 106.95 22.15 106.25 21.05 105.55 20.0 104.7 19.1 103.8 18.2 102.75 17.5 101.7 16.8 100.55 16.3 99.4 15.75 98.1 15.5 96.8 15.25 95.45 15.25 L76.9 15.25 Q76.9 14.7 76.85 14.15 76.8 13.55 76.7 13.0 76.6 12.45 76.5 11.9 76.35 11.3 76.15 10.8 76.0 10.25 75.75 9.7 75.55 9.15 75.3 8.65 75.0 8.15 74.7 7.7 74.4 7.2 74.1 6.75 73.6 6.1 73.05 5.5 72.5 4.9 71.85 4.35 71.25 3.85 70.55 3.35 69.85 2.9 69.15 2.55 68.4 2.15 67.6 1.85 66.8 1.55 66.0 1.35 65.2 1.15 64.35 1.05 63.45 0.95 62.6 0.95 61.7 0.95 60.85 1.05 60.0 1.15 59.2 1.35 58.35 1.55 57.55 1.85 56.8 2.15 56.05 2.55 55.3 2.9 54.65 3.35 53.95 3.8 53.35 4.35 52.7 4.9 52.15 5.5 51.6 6.1 51.1 6.75 50.75 7.2 50.45 7.65 50.15 8.15 49.9 8.65 49.65 9.15 49.45 9.7 49.2 10.25 49.0 10.75 48.85 11.3 48.7 11.9 48.55 12.45 48.45 13.0 48.4 13.55 48.35 14.1 48.3 14.7 48.3 15.25 L48.3 15.25 M68.4 15.25 L56.8 15.25 Q56.8 14.7 56.9 14.15 57.05 13.6 57.25 13.1 57.45 12.55 57.8 12.1 58.1 11.65 58.5 11.25 58.9 10.8 59.35 10.5 59.8 10.15 60.35 9.9 60.85 9.7 61.4 9.55 62.0 9.45 62.6 9.45 63.2 9.45 63.75 9.55 64.3 9.7 64.85 9.95 65.35 10.15 65.85 10.5 66.3 10.8 66.7 11.25 67.1 11.65 67.4 12.1 67.7 12.55 67.95 13.1 68.15 13.6 68.3 14.15 68.4 14.7 68.4 15.25 L68.4 15.25"
         fill="#ffffff"
         fill-rule="evenodd"
         stroke="none"
         id="path12" /></g></defs><sodipodi:namedview
     id="namedview5"
     pagecolor="#505050"
     bordercolor="#eeeeee"
     borderopacity="1"
     inkscape:showpageshadow="0"
     inkscape:pageopacity="0"
     inkscape:pagecheckerboard="0"
     inkscape:deskcolor="#d1d1d1"
     inkscape:zoom="1.181"
     inkscape:cx="200.67739"
     inkscape:cy="320.49111"
     inkscape:window-width="2560"
     inkscape:window-height="1377"
     inkscape:window-x="1192"
     inkscape:window-y="239"
     inkscape:window-maximized="1"
     inkscape:current-layer="svg5"
     inkscape:document-units="px" /><g
     id="g2"
     transform="matrix(3.998001,0,0,3.998001,0.127936,0.127936)"><use
       ffdec:characterId="1"
       height="100"
       transform="scale(1.28)"
       width="100"
       xlink:href="#shape0"
       id="use1" /><use
       ffdec:characterId="260"
       height="125"
       transform="matrix(0.9015,0,0,1.0743,7.65,0.3)"
       width="125"
       xlink:href="#sprite0"
       id="use2" /></g></svg>
